<svg width="500" height="400" viewBox="0 0 500 400" xmlns="http://www.w3.org/2000/svg">
  <defs>
    <linearGradient id="primaryGrad" x1="0%" y1="0%" x2="100%" y2="100%">
      <stop offset="0%" style="stop-color:#4F46E5;stop-opacity:1" />
      <stop offset="100%" style="stop-color:#818CF8;stop-opacity:1" />
    </linearGradient>
    <linearGradient id="secondaryGrad" x1="0%" y1="0%" x2="100%" y2="100%">
      <stop offset="0%" style="stop-color:#10B981;stop-opacity:1" />
      <stop offset="100%" style="stop-color:#6EE7B7;stop-opacity:1" />
    </linearGradient>
  </defs>
  
  <!-- Background elements -->
  <circle cx="400" cy="100" r="80" fill="url(#primaryGrad)" opacity="0.1" />
  <circle cx="100" cy="320" r="60" fill="url(#secondaryGrad)" opacity="0.1" />
  
  <!-- Computer/screen -->
  <rect x="130" y="100" width="240" height="180" rx="10" fill="white" stroke="#E5E7EB" stroke-width="2"/>
  <rect x="140" y="110" width="220" height="140" rx="4" fill="#F3F4F6"/>
  
  <!-- Screen content - chat interface -->
  <rect x="150" y="120" width="200" height="120" rx="2" fill="white"/>
  
  <!-- Chat bubble 1 -->
  <rect x="160" y="130" width="120" height="30" rx="15" fill="#F3F4F6"/>
  <circle cx="170" cy="145" r="10" fill="url(#primaryGrad)"/>
  
  <!-- Chat bubble 2 -->
  <rect x="220" y="170" width="120" height="30" rx="15" fill="#EBF5FF"/>
  <circle cx="330" cy="185" r="10" fill="url(#secondaryGrad)"/>
  
  <!-- Chat bubble 3 -->
  <rect x="160" y="210" width="140" height="20" rx="10" fill="#F3F4F6"/>
  <circle cx="170" cy="220" r="8" fill="url(#primaryGrad)"/>
  
  <!-- Computer stand -->
  <path d="M240 280 L210 320 L270 320 Z" fill="#E5E7EB"/>
  <rect x="200" y="320" width="80" height="10" rx="2" fill="#D1D5DB"/>
  
  <!-- Robot figure -->
  <circle cx="350" cy="280" r="30" fill="url(#primaryGrad)"/>
  <rect x="320" y="310" width="60" height="60" rx="10" fill="url(#primaryGrad)"/>
  
  <!-- Robot face -->
  <circle cx="340" cy="275" r="5" fill="white"/>
  <circle cx="360" cy="275" r="5" fill="white"/>
  <path d="M335 290 Q350 300 365 290" stroke="white" stroke-width="3" fill="transparent"/>
  
  <!-- Robot arms -->
  <rect x="300" y="320" width="20" height="10" rx="5" fill="#4F46E5"/>
  <rect x="380" y="320" width="20" height="10" rx="5" fill="#4F46E5"/>
  
  <!-- Person figure -->
  <circle cx="150" cy="280" r="25" fill="url(#secondaryGrad)"/>
  <rect x="125" y="305" width="50" height="65" rx="10" fill="url(#secondaryGrad)"/>
  
  <!-- Person arms -->
  <rect x="100" y="320" width="25" height="8" rx="4" fill="#10B981"/>
  <rect x="175" y="320" width="25" height="8" rx="4" fill="#10B981"/>
  
  <!-- Connection lines -->
  <path d="M180 290 Q240 260 320 290" stroke="#818CF8" stroke-width="3" stroke-dasharray="5,5" fill="transparent"/>
</svg> 